<?xml version="1.0" standalone="no"?>
<!DOCTYPE svg PUBLIC "-//W3C//DTD SVG 20010904//EN"
 "http://www.w3.org/TR/2001/REC-SVG-20010904/DTD/svg10.dtd">
<svg version="1.0" xmlns="http://www.w3.org/2000/svg"
 width="250.000000pt" height="250.000000pt" viewBox="0 0 250.000000 250.000000"
 preserveAspectRatio="xMidYMid meet">
<metadata>
Created by potrace 1.14, written by Peter Selinger 2001-2017
</metadata>
<g transform="translate(0.000000,250.000000) scale(0.100000,-0.100000)"
fill="#000000" stroke="none">
<path d="M1235 2304 c-27 -14 -58 -33 -68 -41 -18 -17 -130 -87 -233 -147 -72
-42 -91 -61 -77 -78 9 -11 65 -114 133 -243 8 -17 27 -46 41 -65 32 -45 95
-167 89 -173 -3 -2 -32 -20 -66 -39 -58 -34 -61 -35 -73 -16 -11 18 -47 83
-98 177 -56 103 -74 133 -93 153 -11 12 -23 31 -26 42 -6 17 -27 54 -61 105
-1 2 -9 -4 -17 -12 -9 -9 -40 -29 -68 -46 -53 -30 -174 -106 -215 -136 -22
-15 -23 -21 -23 -189 l0 -172 32 -25 c43 -32 251 -159 260 -159 4 0 9 75 10
168 3 194 10 204 65 102 19 -36 42 -72 49 -81 8 -9 23 -32 33 -50 82 -156 106
-194 116 -179 3 6 39 27 78 46 40 20 81 44 92 54 11 9 49 32 85 51 36 19 67
37 70 40 3 3 39 25 80 48 91 52 107 65 93 83 -6 7 -30 51 -55 98 -89 169 -121
225 -139 249 -26 32 -24 44 10 59 25 11 33 10 67 -10 22 -12 52 -33 68 -46 16
-13 57 -37 91 -54 l63 -30 78 47 c171 100 217 130 217 140 0 10 -65 52 -201
131 -34 20 -69 42 -76 50 -7 7 -44 29 -82 50 -38 20 -78 44 -89 54 -11 9 -40
29 -65 43 l-45 26 -50 -25z"/>
<path d="M1985 1880 c-3 -6 -33 -24 -66 -41 -33 -16 -90 -50 -127 -75 -36 -26
-77 -50 -90 -55 l-24 -9 23 -18 c13 -10 47 -31 74 -46 28 -16 60 -38 73 -49
l22 -20 0 -358 0 -357 -47 -35 c-27 -19 -70 -47 -98 -61 -27 -15 -56 -32 -65
-40 -8 -7 -44 -30 -78 -52 -35 -21 -97 -59 -137 -84 -40 -25 -92 -58 -115 -73
-38 -26 -45 -27 -72 -16 -17 7 -42 22 -57 34 -14 12 -55 38 -89 59 -35 20 -71
43 -79 51 -8 8 -19 15 -25 15 -6 0 -44 22 -85 50 -40 27 -97 62 -125 76 -29
15 -67 38 -85 53 l-33 26 0 102 0 101 -33 21 c-17 11 -66 42 -107 67 -41 25
-77 49 -80 53 -7 10 -67 51 -74 51 -3 0 -6 -135 -6 -299 l0 -300 32 -24 c18
-14 58 -39 88 -57 30 -17 93 -56 140 -85 47 -30 107 -67 133 -82 27 -15 63
-38 80 -50 18 -12 64 -40 102 -62 39 -22 75 -43 80 -48 6 -5 39 -26 75 -47 36
-22 74 -47 85 -56 11 -10 35 -25 54 -35 33 -16 36 -16 65 0 17 10 40 26 51 36
11 9 52 34 90 54 39 20 78 44 87 52 18 16 100 67 208 129 36 20 74 45 85 54
11 10 52 35 90 55 39 21 72 41 75 45 3 5 37 27 75 50 39 23 82 49 97 58 l28
17 0 551 c0 512 -1 552 -17 566 -10 8 -49 32 -88 53 -38 21 -77 44 -87 52 -11
10 -18 11 -23 3z"/>
</g>
</svg>
